# 3ds Max Wavefront OBJ Exporter v0.97b - (c)2007 guruware
# File Created: 08.07.2018 19:27:34

#
# object Box001
#

v  29.5275 0.7553 46.8153
v  29.5275 3.0167 46.8153
v  -29.5275 3.0167 46.8153
v  -29.5275 0.7553 46.8153
v  29.5275 0.7553 -31.9248
v  29.5275 3.0167 -31.9248
v  -29.5275 0.7553 -31.9248
v  -29.5275 3.0167 -31.9248
v  26.8625 3.0167 44.1504
v  -26.8626 3.0167 44.1504
v  26.8625 3.0167 -29.2599
v  -26.8626 3.0167 -29.2599
v  26.8625 0.7553 44.1504
v  -26.8626 0.7553 44.1504
v  26.8625 0.7553 -29.2599
v  -26.8626 0.7553 -29.2599
v  27.1225 2.5988 -29.6150
v  -27.1226 2.5988 -29.6150
v  -27.1226 2.5988 44.5055
v  27.1225 2.5988 44.5055
# 20 vertices

vn 0.0000 0.0000 1.0000
vn 1.0000 0.0000 -0.0000
vn 0.0000 0.0000 -1.0000
vn -1.0000 0.0000 -0.0000
vn 0.0000 1.0000 -0.0000
# 5 vertex normals

vt 0.6593 0.5294 0.0000
vt 0.6390 0.5294 0.0000
vt 0.6390 0.0005 0.0000
vt 0.6593 0.0005 0.0000
vt 0.1000 0.7057 0.0000
vt 0.0797 0.7057 0.0000
vt 0.0797 0.0005 0.0000
vt 0.1000 0.0005 0.0000
vt 0.6826 0.5294 0.0000
vt 0.6623 0.5294 0.0000
vt 0.6623 0.0005 0.0000
vt 0.6826 0.0005 0.0000
vt 0.0208 0.7104 0.0000
vt 0.0005 0.7104 0.0000
vt 0.0005 0.0052 0.0000
vt 0.0208 0.0052 0.0000
vt 0.0984 0.7188 0.0000
vt 0.1222 0.6949 0.0000
vt 0.6034 0.6949 0.0000
vt 0.6273 0.7188 0.0000
vt 0.0518 0.0005 0.0000
vt 0.0756 0.0244 0.0000
vt 0.0756 0.6818 0.0000
vt 0.0518 0.7057 0.0000
vt 0.6413 0.6670 0.0000
vt 0.6174 0.6908 0.0000
vt 0.1362 0.6908 0.0000
vt 0.1124 0.6670 0.0000
vt 0.0477 0.7057 0.0000
vt 0.0238 0.6818 0.0000
vt 0.0238 0.0244 0.0000
vt 0.0477 0.0005 0.0000
vt 0.7089 0.0005 0.0000
vt 0.7292 0.0005 0.0000
vt 0.7292 0.4817 0.0000
vt 0.7089 0.4817 0.0000
vt 0.6157 0.0005 0.0000
vt 0.6360 0.0005 0.0000
vt 0.6360 0.6580 0.0000
vt 0.6157 0.6580 0.0000
vt 0.6856 0.0005 0.0000
vt 0.7059 0.0005 0.0000
vt 0.7059 0.4817 0.0000
vt 0.6856 0.4817 0.0000
vt 0.5924 0.0005 0.0000
vt 0.6127 0.0005 0.0000
vt 0.6127 0.6580 0.0000
vt 0.5924 0.6580 0.0000
vt 0.1030 0.0005 0.0000
vt 0.5889 0.0005 0.0000
vt 0.5889 0.6643 0.0000
vt 0.1030 0.6643 0.0000
# 52 texture coords

g Box001
s 8
f 1/1/1 2/2/1 3/3/1 4/4/1 
s 16
f 5/5/2 6/6/2 2/7/2 1/8/2 
s 32
f 7/9/3 8/10/3 6/11/3 5/12/3 
s 64
f 4/13/4 3/14/4 8/15/4 7/16/4 
s off
f 2/17/5 9/18/5 10/19/5 3/20/5 
f 6/21/5 11/22/5 9/23/5 2/24/5 
f 8/25/5 12/26/5 11/27/5 6/28/5 
f 3/29/5 10/30/5 12/31/5 8/32/5 
f 9/33/3 13/34/3 14/35/3 10/36/3 
f 11/37/4 15/38/4 13/39/4 9/40/4 
f 12/41/1 16/42/1 15/43/1 11/44/1 
f 10/45/2 14/46/2 16/47/2 12/48/2 
f 17/49/5 18/50/5 19/51/5 20/52/5 
# 13 polygons

